<?xml version="1.0" standalone="no"?>
<!DOCTYPE svg PUBLIC "-//W3C//DTD SVG 20010904//EN"
 "http://www.w3.org/TR/2001/REC-SVG-20010904/DTD/svg10.dtd">
<svg version="1.0" xmlns="http://www.w3.org/2000/svg"
 width="1352.000000pt" height="1352.000000pt" viewBox="0 0 1352.000000 1352.000000"
 preserveAspectRatio="xMidYMid meet">
<metadata>
Created by potrace 1.14, written by Peter Selinger 2001-2017
</metadata>
<g transform="translate(0.000000,1352.000000) scale(0.100000,-0.100000)"
fill="#000000" stroke="none">
<path d="M6489 13506 c-2 -2 -60 -7 -128 -11 -68 -4 -131 -8 -140 -10 -9 -1
-47 -6 -86 -10 -77 -7 -125 -13 -164 -19 -14 -3 -62 -10 -106 -16 -44 -7 -87
-13 -95 -15 -8 -1 -35 -6 -60 -11 -25 -4 -47 -8 -50 -9 -3 -1 -25 -5 -50 -10
-25 -5 -47 -9 -50 -10 -3 -1 -32 -7 -65 -14 -288 -62 -744 -207 -979 -310 -23
-10 -70 -31 -106 -46 -110 -48 -292 -135 -360 -173 -36 -20 -67 -37 -70 -37
-10 -1 -234 -133 -345 -203 -147 -93 -460 -314 -485 -342 -3 -3 -25 -21 -50
-40 -25 -19 -47 -37 -50 -40 -3 -3 -34 -29 -70 -59 -104 -85 -236 -207 -370
-341 -113 -113 -150 -153 -270 -286 -342 -378 -724 -967 -942 -1449 -27 -60
-55 -123 -63 -140 -66 -145 -172 -432 -234 -637 -28 -92 -53 -178 -55 -192 -3
-14 -7 -29 -9 -33 -7 -11 -85 -359 -92 -413 -4 -24 -8 -47 -10 -50 -2 -3 -6
-23 -9 -45 -4 -22 -11 -65 -16 -95 -5 -30 -12 -75 -15 -100 -3 -25 -10 -79
-15 -120 -5 -41 -12 -106 -15 -145 -3 -38 -8 -83 -10 -100 -24 -170 -23 -755
0 -1010 8 -80 16 -157 21 -205 8 -69 54 -373 59 -390 2 -8 7 -31 10 -50 3 -19
15 -78 26 -130 12 -52 25 -111 29 -130 16 -75 84 -328 97 -360 3 -8 7 -19 8
-25 1 -5 10 -32 20 -60 9 -27 18 -57 20 -66 7 -32 115 -325 149 -403 8 -17 33
-76 56 -131 108 -253 347 -688 505 -920 118 -173 255 -363 288 -397 7 -7 38
-44 69 -83 60 -73 73 -89 166 -195 67 -77 407 -418 472 -474 25 -21 68 -58 95
-81 154 -134 361 -292 542 -413 136 -91 357 -229 393 -245 8 -4 31 -17 50 -28
56 -34 377 -194 470 -234 220 -96 386 -158 598 -226 109 -34 323 -94 370 -104
9 -1 35 -8 57 -14 22 -5 55 -13 74 -16 19 -3 37 -7 40 -9 3 -2 22 -7 41 -10
19 -3 46 -8 60 -11 236 -48 532 -84 815 -100 95 -6 582 -5 640 0 22 2 81 7
130 10 50 3 101 8 115 10 14 2 51 6 83 9 130 13 172 18 178 22 3 2 30 6 59 9
30 4 57 8 60 10 3 2 30 6 60 10 30 4 57 8 60 10 3 2 23 6 45 10 32 4 321 72
385 89 8 2 44 12 80 21 255 66 775 266 1020 394 303 158 379 202 615 356 99
65 291 201 355 252 29 23 156 125 200 161 204 167 516 479 700 698 41 49 81
96 90 105 8 9 26 31 40 49 14 19 50 66 81 104 98 125 273 384 378 560 39 65
71 120 71 122 0 2 14 27 31 56 36 61 159 304 214 423 75 163 243 599 260 675
2 8 15 51 29 95 51 163 137 520 161 675 3 19 7 46 10 60 3 14 7 39 9 55 7 51
18 119 22 140 2 11 6 47 9 80 3 33 8 71 10 85 4 25 9 78 22 225 16 184 8 831
-12 1020 -3 22 -7 63 -9 90 -3 28 -10 84 -16 125 -6 41 -13 93 -15 115 -3 22
-8 51 -10 65 -3 14 -7 41 -10 60 -5 31 -34 180 -55 285 -44 214 -146 561 -244
827 -112 304 -305 704 -486 1003 -36 61 -73 121 -81 135 -8 14 -16 27 -19 30
-3 3 -28 39 -55 80 -93 143 -292 407 -419 555 -177 206 -337 371 -510 528 -43
40 -94 87 -112 105 -18 17 -36 32 -40 32 -4 0 -28 19 -53 43 -26 23 -64 56
-86 72 -21 17 -43 35 -49 40 -81 76 -511 369 -686 468 -19 11 -69 39 -112 63
-42 24 -136 73 -210 109 -73 36 -141 70 -151 76 -32 18 -240 106 -337 144 -52
20 -106 41 -120 47 -77 32 -467 153 -559 173 -9 2 -52 13 -96 24 -72 18 -241
54 -305 65 -80 13 -98 16 -125 21 -16 2 -41 7 -55 9 -14 3 -45 7 -70 10 -103
12 -137 16 -170 21 -19 2 -71 7 -115 10 -44 4 -98 9 -120 11 -44 6 -671 15
-676 10z"/>
<path d="M1846 3158 c-82 -150 -123 -226 -140 -263 -11 -22 -48 -100 -83 -173
-34 -73 -63 -136 -63 -141 0 -4 -9 -26 -20 -49 -11 -22 -20 -46 -20 -53 0 -14
-111 -6 -207 15 -15 4 -40 9 -55 11 -54 10 -73 13 -118 24 -25 5 -58 12 -75
15 -83 15 -428 105 -475 123 -8 3 -19 7 -25 8 -5 0 -17 4 -25 7 -41 17 -153
48 -157 44 -4 -4 39 -85 59 -111 4 -5 41 -60 80 -120 40 -61 79 -117 86 -125
11 -13 58 -77 110 -149 9 -13 22 -28 27 -35 6 -6 30 -36 54 -66 25 -30 50 -59
56 -65 6 -5 17 -19 25 -31 50 -71 395 -427 531 -546 135 -119 206 -179 233
-198 12 -8 27 -20 34 -27 8 -7 30 -26 50 -41 21 -15 39 -29 42 -32 4 -5 72
-58 105 -82 77 -58 105 -77 105 -73 0 3 10 -4 23 -16 35 -33 273 -189 289
-189 8 0 30 13 49 30 19 16 39 33 44 37 12 10 130 109 165 140 14 12 43 38 65
58 47 41 70 41 133 1 23 -14 44 -26 47 -26 2 0 28 -15 57 -33 56 -36 145 -85
268 -149 41 -22 81 -45 89 -51 8 -7 16 -11 18 -9 2 1 49 -20 106 -47 203 -98
333 -154 562 -243 153 -59 469 -169 510 -176 12 -3 165 -48 213 -63 19 -6 44
-12 55 -14 12 -2 56 -13 97 -24 65 -18 263 -65 325 -77 11 -2 31 -6 45 -9 14
-3 50 -9 80 -15 30 -6 66 -12 80 -15 35 -7 246 -43 295 -50 22 -3 54 -7 70
-10 95 -15 159 -22 250 -30 39 -3 93 -8 120 -10 236 -25 403 -31 795 -28 201
1 385 4 410 7 25 3 88 8 140 11 52 4 106 8 120 10 14 2 63 7 110 10 69 4 140
13 170 20 7 2 132 19 150 20 16 2 101 15 135 21 11 2 72 13 135 24 63 11 125
22 138 25 12 3 30 7 41 9 10 2 63 14 117 25 366 79 908 242 1159 349 21 9 42
17 45 18 3 0 16 5 30 11 14 6 45 19 70 28 25 10 49 22 54 27 6 4 16 8 23 8 7
0 61 22 119 50 58 27 108 50 111 50 4 0 254 124 283 140 90 52 274 150 281
150 5 0 9 5 9 10 0 6 5 10 11 10 6 0 31 14 56 30 24 17 57 37 74 45 34 18 32
19 139 -75 54 -47 195 -167 239 -202 11 -10 26 -18 33 -18 11 0 138 78 148 91
3 3 19 14 35 23 17 9 46 28 65 42 19 14 44 32 55 40 103 74 211 157 213 164 2
6 8 10 13 10 9 0 154 113 190 149 9 9 36 32 60 51 74 60 147 129 329 310 174
174 259 266 355 385 17 20 35 42 40 49 31 36 125 156 125 160 0 3 21 34 47 69
27 35 55 74 63 87 8 12 21 28 28 36 6 7 12 15 12 18 0 2 18 32 40 64 43 66
100 160 100 167 0 3 -22 -4 -50 -15 -27 -11 -50 -17 -50 -15 0 3 -10 0 -22 -6
-13 -7 -36 -16 -53 -20 -16 -4 -61 -17 -100 -29 -167 -50 -470 -121 -665 -155
-52 -9 -114 -20 -137 -25 -28 -5 -48 -4 -57 4 -14 10 -35 54 -42 83 -10 49
-320 663 -335 663 -3 0 -45 -55 -93 -122 -119 -169 -183 -253 -226 -298 -14
-14 -37 -42 -52 -62 -49 -65 -405 -416 -449 -443 -9 -6 -88 42 -109 64 -3 4
-27 22 -55 41 -27 19 -57 40 -65 47 -121 99 -171 133 -182 127 -25 -15 -173
-137 -176 -146 -2 -4 -8 -8 -14 -8 -9 0 -69 -42 -96 -68 -8 -6 -23 -17 -35
-23 -11 -7 -26 -16 -31 -20 -6 -5 -26 -20 -43 -35 -18 -14 -33 -23 -33 -19 0
3 -9 -3 -20 -13 -11 -10 -33 -25 -48 -33 -15 -8 -29 -17 -32 -20 -3 -3 -21
-14 -40 -24 -19 -10 -48 -28 -65 -40 -16 -12 -64 -40 -105 -61 -41 -22 -77
-42 -80 -46 -4 -5 -329 -165 -405 -199 -21 -9 -77 -31 -85 -34 -3 -1 -23 -9
-45 -19 -130 -57 -637 -229 -670 -227 -2 0 -23 -6 -45 -14 -22 -8 -40 -12 -40
-10 0 3 -11 0 -25 -5 -14 -5 -36 -12 -48 -14 -12 -3 -76 -16 -142 -31 -120
-26 -194 -41 -250 -50 -16 -3 -42 -8 -57 -11 -15 -3 -42 -7 -60 -9 -29 -4 -85
-12 -218 -31 -19 -3 -64 -7 -100 -10 -36 -2 -76 -7 -90 -9 -137 -25 -956 -25
-1087 -1 -10 2 -54 7 -98 11 -107 9 -276 32 -410 56 -60 10 -123 22 -140 25
-16 2 -37 7 -45 9 -8 2 -31 7 -50 10 -19 3 -62 13 -95 21 -33 9 -67 17 -75 19
-60 13 -155 38 -300 80 -30 9 -62 18 -70 20 -68 17 -497 175 -524 193 -6 4
-13 7 -16 8 -10 2 -67 26 -135 58 -38 18 -99 46 -134 62 -36 16 -80 39 -98 51
-18 12 -33 20 -33 17 0 -3 -15 3 -32 14 -72 43 -183 107 -188 107 -18 3 -410
263 -430 286 -3 3 -23 18 -45 35 -55 40 -54 39 -105 84 -79 69 -79 69 -152 11
-34 -28 -68 -56 -75 -61 -32 -26 -182 -138 -212 -158 -38 -26 -46 -23 -114 42
-21 20 -40 36 -41 36 -6 0 -220 215 -281 282 -77 84 -101 112 -150 173 -22 28
-43 52 -46 55 -16 14 -159 212 -159 220 0 6 -3 10 -7 10 -5 0 -21 23 -38 50
-16 28 -32 50 -37 50 -4 0 -23 -28 -42 -62z"/>
</g>
</svg>
