<?xml version="1.0" standalone="no"?>
<!DOCTYPE svg PUBLIC "-//W3C//DTD SVG 20010904//EN"
 "http://www.w3.org/TR/2001/REC-SVG-20010904/DTD/svg10.dtd">
<svg version="1.0" xmlns="http://www.w3.org/2000/svg"
 width="852.000000pt" height="852.000000pt" viewBox="0 0 852.000000 852.000000"
 preserveAspectRatio="xMidYMid meet">
<metadata>
Created by potrace 1.14, written by Peter Selinger 2001-2017
</metadata>
<g transform="translate(0.000000,852.000000) scale(0.100000,-0.100000)"
fill="#000000" stroke="none">
<path d="M3985 8421 c-4 -4 -106 -13 -157 -15 -16 -1 -28 -3 -28 -6 0 -3 -15
-5 -33 -6 -35 -1 -107 -11 -147 -19 -14 -3 -36 -7 -50 -9 -14 -2 -36 -7 -50
-10 -14 -3 -38 -8 -55 -11 -37 -7 -60 -13 -60 -15 0 -1 -9 -3 -20 -5 -21 -4
-57 -12 -65 -15 -3 -1 -8 -2 -11 -2 -4 1 -30 -7 -59 -18 -29 -11 -57 -17 -61
-14 -5 3 -9 0 -9 -6 0 -6 -3 -9 -7 -7 -5 3 -19 0 -33 -6 -14 -5 -30 -11 -37
-13 -31 -6 -89 -28 -100 -37 -7 -5 -13 -6 -13 -2 0 4 -7 2 -15 -5 -8 -6 -19
-9 -25 -5 -5 3 -10 1 -10 -5 0 -6 -4 -8 -10 -5 -5 3 -10 1 -10 -6 0 -7 -3 -10
-6 -7 -3 4 -24 -2 -47 -12 -23 -10 -45 -16 -49 -14 -4 3 -8 1 -8 -5 0 -5 -13
-12 -30 -16 -16 -4 -30 -11 -30 -17 0 -6 -3 -9 -6 -5 -4 3 -25 -4 -48 -15 -22
-12 -44 -21 -48 -20 -5 1 -8 -3 -8 -10 0 -6 -3 -8 -7 -5 -3 4 -15 -1 -26 -10
-10 -10 -22 -17 -26 -16 -10 4 -61 -21 -61 -30 0 -5 -4 -6 -9 -2 -6 3 -14 -3
-20 -12 -6 -10 -11 -14 -11 -9 0 5 -10 1 -22 -10 -14 -13 -19 -14 -14 -4 4 8
0 6 -8 -4 -9 -11 -16 -16 -16 -10 0 5 -7 0 -15 -10 -8 -11 -15 -16 -15 -12 0
7 -69 -31 -80 -44 -5 -6 -18 -12 -45 -21 -5 -1 -21 -13 -35 -26 -14 -13 -33
-26 -42 -29 -10 -3 -18 -10 -18 -15 0 -6 -5 -7 -10 -4 -6 3 -13 -1 -16 -9 -3
-9 -10 -13 -15 -10 -5 3 -9 0 -9 -5 0 -6 -7 -11 -15 -11 -7 0 -19 -8 -24 -17
-6 -10 -11 -14 -11 -10 0 4 -6 3 -12 -3 -7 -5 -40 -31 -73 -57 -33 -26 -63
-52 -67 -58 -4 -5 -8 -7 -8 -2 0 7 -42 -28 -92 -75 -10 -10 -18 -16 -18 -13 0
3 -14 -10 -31 -28 -17 -17 -35 -31 -40 -29 -5 1 -9 -5 -9 -14 0 -8 -4 -13 -9
-9 -5 3 -12 -4 -16 -15 -3 -11 -10 -20 -15 -20 -9 0 -150 -136 -150 -145 0 -3
-9 -14 -20 -25 -11 -11 -20 -17 -20 -13 0 4 -8 -4 -17 -17 -10 -14 -17 -29
-15 -33 1 -5 -1 -6 -6 -3 -4 3 -19 -9 -33 -26 -28 -35 -81 -98 -121 -141 -15
-16 -30 -38 -33 -48 -4 -11 -11 -17 -16 -14 -5 4 -9 -1 -9 -10 0 -8 -7 -18
-16 -22 -13 -5 -13 -7 -2 -14 10 -7 9 -9 -4 -9 -10 0 -18 -5 -18 -10 0 -6 -11
-23 -24 -37 -14 -15 -23 -30 -21 -34 3 -4 -2 -9 -10 -13 -8 -3 -15 -12 -15
-21 0 -8 -4 -15 -8 -15 -4 0 -21 -22 -37 -50 -16 -27 -33 -50 -38 -50 -4 0 -6
-4 -3 -9 3 -4 -3 -16 -14 -26 -11 -10 -20 -24 -20 -31 0 -7 -7 -20 -16 -28 -8
-9 -12 -16 -8 -16 4 0 -1 -9 -11 -20 -10 -11 -14 -20 -9 -20 5 0 4 -4 -2 -8
-20 -13 -105 -182 -98 -194 4 -6 3 -8 -3 -5 -9 6 -22 -10 -27 -33 -1 -3 -7
-15 -14 -26 -6 -12 -8 -24 -5 -28 3 -3 0 -6 -7 -6 -7 0 -11 -3 -7 -6 3 -4 -1
-13 -9 -21 -8 -8 -12 -19 -9 -24 4 -5 1 -9 -5 -9 -6 0 -8 -4 -5 -10 3 -5 2
-10 -3 -10 -5 0 -9 -6 -9 -12 0 -7 -11 -35 -23 -63 -13 -27 -25 -59 -27 -69
-2 -11 -8 -24 -13 -30 -5 -7 -10 -23 -12 -38 -2 -14 -9 -32 -14 -39 -6 -8 -13
-23 -16 -34 -3 -11 -18 -60 -33 -110 -15 -49 -28 -94 -29 -100 -1 -5 -5 -16
-9 -22 -5 -7 -6 -17 -2 -22 3 -5 0 -13 -6 -16 -5 -4 -8 -13 -5 -21 3 -7 1 -16
-5 -20 -6 -3 -8 -12 -5 -19 2 -7 -1 -18 -7 -24 -6 -6 -8 -11 -4 -11 3 0 0 -17
-7 -37 -7 -21 -12 -46 -10 -55 1 -10 -2 -20 -7 -24 -5 -3 -7 -9 -4 -14 3 -5 1
-19 -6 -31 -9 -17 -8 -20 3 -13 10 6 11 5 1 -7 -6 -8 -12 -30 -14 -49 -2 -19
-5 -39 -8 -45 -3 -5 -6 -23 -7 -40 -1 -16 -3 -30 -4 -30 -1 0 -3 -13 -5 -30
-1 -16 -6 -56 -10 -88 -17 -145 -23 -317 -12 -317 6 0 5 -5 0 -12 -8 -10 -12
-293 -4 -293 1 0 3 -51 6 -114 3 -77 9 -117 17 -123 9 -5 9 -8 1 -8 -6 0 -10
-8 -8 -17 2 -10 4 -18 5 -18 2 0 6 -25 14 -106 4 -31 10 -69 15 -85 4 -16 7
-39 6 -51 -1 -13 1 -23 5 -23 5 0 10 -32 13 -77 0 -7 3 -13 7 -13 3 0 7 -12 8
-27 4 -43 7 -57 16 -71 4 -7 5 -16 2 -19 -3 -3 -1 -12 5 -19 6 -8 9 -21 5 -29
-3 -8 -2 -15 2 -15 5 0 14 -24 21 -52 7 -29 21 -78 31 -108 10 -30 20 -64 22
-75 2 -11 7 -23 11 -26 4 -3 9 -16 10 -27 1 -12 5 -22 10 -22 5 0 7 -7 3 -15
-3 -8 -1 -15 5 -15 6 0 8 -4 4 -9 -3 -5 -1 -12 5 -16 5 -3 10 -15 10 -26 0
-10 5 -19 11 -19 5 0 8 -3 5 -8 -2 -4 6 -30 19 -57 12 -28 21 -53 18 -57 -2
-5 1 -8 8 -8 7 0 10 -3 6 -6 -3 -3 6 -26 19 -50 14 -24 21 -44 17 -44 -4 0 -3
-4 4 -8 6 -4 13 -16 15 -27 1 -11 6 -22 9 -25 3 -3 34 -59 68 -125 35 -66 72
-132 82 -147 11 -14 19 -31 19 -37 0 -6 5 -11 10 -11 6 0 10 -6 10 -13 0 -7 9
-23 20 -35 11 -12 20 -23 20 -26 0 -10 75 -121 97 -145 12 -13 20 -28 17 -33
-3 -4 2 -8 11 -8 9 0 14 -4 11 -9 -3 -5 2 -15 10 -22 9 -8 27 -30 40 -50 13
-21 35 -49 49 -63 14 -14 25 -28 25 -32 0 -3 16 -22 35 -43 96 -101 145 -157
145 -164 0 -5 4 -5 10 -2 5 3 10 1 10 -5 0 -14 158 -170 172 -170 5 0 6 -5 3
-10 -3 -5 -1 -10 4 -10 6 0 27 -16 47 -35 20 -19 40 -32 45 -29 5 3 8 2 7 -3
-3 -8 37 -53 47 -53 3 0 16 -10 29 -22 13 -13 33 -30 46 -38 21 -14 39 -28 87
-70 12 -10 24 -16 27 -13 3 4 6 1 6 -5 0 -7 5 -12 10 -12 6 0 22 -11 36 -25
14 -14 30 -23 35 -20 5 4 9 1 9 -4 0 -6 5 -11 10 -11 6 0 20 -9 32 -20 12 -11
34 -26 50 -32 15 -7 28 -16 28 -20 0 -5 5 -8 10 -8 6 0 20 -9 32 -20 12 -11
28 -20 35 -20 8 0 23 -9 35 -20 12 -11 31 -20 42 -20 10 0 16 -3 12 -7 -7 -7
133 -78 147 -75 4 1 7 -2 7 -7 0 -8 34 -21 54 -20 5 1 13 -6 18 -15 5 -9 15
-16 23 -16 8 0 31 -9 50 -20 20 -11 33 -16 30 -10 -4 7 2 6 14 -2 12 -7 21
-15 21 -19 0 -3 6 -6 13 -7 12 -1 66 -20 122 -43 17 -7 32 -13 35 -14 3 -1 19
-7 35 -14 17 -7 38 -13 48 -14 9 -1 17 -4 17 -8 0 -4 18 -10 40 -14 22 -4 42
-11 46 -16 3 -5 10 -7 15 -3 5 3 15 1 22 -4 7 -6 26 -12 42 -15 17 -3 49 -12
73 -20 29 -10 42 -11 42 -3 0 6 5 4 10 -5 6 -10 20 -15 35 -14 14 2 25 0 25
-4 0 -4 16 -8 37 -9 20 -2 41 -6 47 -10 11 -7 21 -9 71 -15 17 -3 38 -8 48
-12 9 -4 24 -5 32 -1 8 3 15 2 15 -2 0 -4 15 -7 33 -7 17 0 37 -2 42 -4 20
-10 35 -9 35 2 0 8 3 7 9 -2 5 -8 32 -14 67 -17 33 -2 59 -4 59 -4 0 -1 24 -3
53 -5 29 -2 57 -7 62 -10 6 -3 10 -2 10 4 0 7 8 7 23 2 27 -10 582 -3 582 8 0
2 106 12 143 14 6 0 12 3 12 7 0 3 20 6 45 5 25 0 45 3 45 6 0 4 8 6 17 5 10
-2 39 3 66 10 26 7 50 13 52 13 3 1 7 2 10 2 3 1 13 2 23 4 55 6 91 18 85 29
-4 8 -2 7 7 -1 8 -8 20 -9 37 -2 13 5 38 11 56 14 17 4 34 9 37 13 3 4 14 7
25 6 11 0 29 4 40 10 11 5 25 11 31 12 66 11 337 113 480 180 40 19 76 34 79
34 4 0 19 9 35 20 15 11 30 17 34 13 3 -3 6 0 6 7 0 7 3 11 6 7 3 -3 23 4 43
17 20 13 46 26 59 30 12 4 22 12 22 17 0 6 4 8 9 4 6 -3 14 3 20 12 6 10 11
14 11 10 0 -5 13 1 29 12 16 12 34 21 40 21 6 0 11 3 11 8 0 4 27 23 60 41 33
19 60 39 60 43 0 4 7 8 15 8 8 0 15 5 15 10 0 6 7 10 15 10 8 0 15 5 15 11 0
5 5 7 10 4 6 -3 10 -3 10 2 0 4 16 19 35 32 19 13 44 32 56 42 12 11 25 19 28
19 3 0 21 14 40 30 18 17 38 30 42 30 5 0 9 7 9 15 0 8 3 14 8 13 8 -3 24 9
67 49 13 13 27 23 31 23 3 0 15 11 26 25 11 14 24 22 30 19 7 -5 8 -2 4 5 -5
8 0 14 13 18 12 3 21 11 21 17 0 7 18 25 39 42 22 16 38 31 36 34 -1 3 14 19
35 35 21 17 46 42 56 57 11 16 25 28 32 28 6 0 12 5 12 11 0 7 11 22 26 35 14
13 23 24 20 24 -2 0 12 18 32 40 35 37 46 50 104 124 13 15 31 37 41 47 9 10
17 24 17 29 0 6 4 10 8 10 10 0 45 60 35 61 -4 0 2 4 15 10 13 5 21 13 17 18
-3 6 0 13 7 18 7 4 20 22 28 38 8 17 23 39 33 50 23 25 117 182 117 195 0 6 3
10 8 10 4 0 21 28 37 63 17 34 37 67 45 74 8 7 11 13 7 13 -4 0 4 20 18 45 13
25 24 46 23 48 -1 1 10 26 25 55 14 28 24 52 20 52 -3 0 1 7 8 16 7 9 14 21
15 28 1 6 8 25 15 41 7 17 12 33 11 38 -1 4 2 7 7 7 5 0 12 7 15 16 3 8 2 12
-4 9 -5 -3 -3 7 5 22 14 25 35 75 40 96 2 4 4 9 5 12 1 3 3 8 4 13 1 4 5 13 9
20 5 6 5 12 1 12 -3 0 1 12 11 26 9 15 12 23 5 19 -8 -5 -9 -2 -1 11 10 19 22
51 26 69 2 6 8 30 16 55 15 55 19 70 21 92 1 10 6 18 11 18 5 0 7 6 4 13 -2 6
0 26 5 42 5 17 11 41 13 55 2 14 9 45 15 70 6 25 12 57 12 73 1 15 4 27 7 27
3 0 7 15 8 33 1 17 5 48 8 67 12 78 24 194 29 293 2 38 7 71 10 74 3 3 1 14
-5 24 -5 11 -6 19 -1 19 11 0 10 40 -1 58 -5 6 -4 12 1 12 5 0 9 16 9 35 -1
19 -6 35 -12 35 -7 0 -7 3 0 8 6 4 11 21 11 37 0 17 -5 33 -11 37 -7 5 -6 8 1
8 14 0 13 70 -1 70 -7 0 -7 3 0 8 10 7 15 72 5 72 -3 0 -6 21 -7 48 -1 49 -11
177 -13 177 -2 0 -10 62 -15 115 -2 25 -4 45 -5 45 -1 0 -4 14 -6 30 -3 17
-12 64 -20 105 -14 68 -21 102 -27 134 -1 6 -6 14 -12 18 -6 5 -4 8 5 8 9 0
11 3 4 8 -10 7 -30 76 -39 136 -3 16 -12 41 -21 54 -10 15 -11 21 -3 17 8 -6
10 -4 3 6 -9 14 -14 34 -16 57 -1 6 -5 12 -10 12 -4 0 -8 10 -8 23 0 13 -4 27
-8 33 -5 5 -14 29 -21 54 -7 25 -19 53 -26 64 -8 10 -11 25 -8 32 3 8 -1 14
-8 14 -7 0 -10 3 -7 6 5 5 -8 42 -52 139 -37 84 -137 283 -147 293 -7 8 -11
17 -8 21 2 5 -5 18 -16 29 -11 12 -16 22 -12 22 4 0 3 4 -2 8 -6 4 -22 29 -35
56 -14 26 -31 50 -37 53 -7 3 -11 8 -8 12 2 4 -14 32 -36 62 -21 30 -42 62
-45 72 -4 9 -10 17 -15 17 -5 0 -9 7 -9 15 0 8 -3 15 -8 15 -4 0 -18 18 -32
39 -13 22 -28 37 -34 34 -5 -3 -6 -2 -3 4 4 6 -9 28 -28 49 -19 21 -35 42 -35
46 0 4 -11 19 -25 33 -14 14 -23 25 -20 25 4 0 0 7 -9 15 -8 8 -20 15 -27 15
-7 0 -10 3 -6 6 6 6 -13 29 -115 138 -32 33 -58 64 -58 68 0 4 -9 9 -20 13
-11 3 -19 9 -17 13 2 8 -78 86 -144 142 -23 19 -52 46 -65 60 -13 14 -24 22
-24 18 0 -4 -18 12 -40 34 -22 23 -40 39 -40 35 0 -5 -12 4 -27 18 -16 14 -35
32 -44 40 -9 8 -21 15 -27 15 -7 0 -12 5 -12 10 0 6 -7 10 -15 10 -9 0 -18 7
-21 15 -4 8 -10 12 -15 9 -5 -3 -9 -2 -9 3 0 4 -25 24 -55 43 -30 19 -55 38
-55 43 0 4 -7 7 -15 7 -8 0 -15 5 -15 10 0 6 -5 10 -11 10 -6 0 -17 7 -26 15
-8 8 -19 13 -24 10 -5 -4 -9 -1 -9 4 0 6 -5 11 -11 11 -6 0 -25 11 -43 25 -18
14 -36 25 -40 25 -3 0 -24 11 -46 25 -22 14 -40 22 -40 18 0 -5 -4 -3 -8 3 -9
13 -144 85 -136 73 3 -5 -11 2 -32 16 -21 14 -48 28 -61 31 -13 4 -23 10 -23
16 0 5 -3 7 -8 5 -4 -3 -34 8 -67 23 -33 15 -63 26 -67 23 -5 -2 -8 1 -8 6 0
6 -6 11 -14 11 -7 0 -26 7 -42 14 -15 8 -31 13 -36 10 -4 -3 -8 0 -8 5 0 6 -3
10 -7 9 -10 -2 -95 24 -108 33 -5 4 -23 9 -40 12 -16 3 -41 9 -55 15 -14 5
-28 10 -32 11 -9 2 -13 3 -78 22 -25 7 -47 13 -50 14 -3 0 -23 4 -45 9 -22 4
-44 10 -49 14 -5 3 -21 7 -35 8 -14 2 -37 5 -51 8 -14 3 -36 7 -50 10 -56 11
-159 26 -205 31 -16 1 -30 4 -30 5 0 1 -18 4 -40 6 -22 2 -60 6 -85 8 -25 3
-134 8 -242 11 -156 4 -198 3 -198 -7 0 -9 -3 -9 -8 -2 -6 10 -168 15 -177 5z"/>
<path d="M927 2034 c-3 -3 -20 -7 -39 -8 -44 -4 -69 -16 -61 -29 3 -5 1 -7 -4
-4 -14 9 -57 -31 -77 -70 -9 -18 -14 -33 -12 -33 3 0 1 -11 -4 -25 -6 -15 -6
-26 1 -30 5 -4 7 -11 4 -16 -4 -5 -1 -9 4 -9 6 0 11 -6 11 -13 0 -18 33 -47
57 -52 10 -2 19 -4 21 -5 14 -12 85 7 76 21 -3 5 -1 9 5 9 25 0 31 96 7 115
-7 6 -13 15 -13 20 0 6 -13 16 -29 24 l-29 15 30 12 c36 16 115 18 115 4 0 -5
7 -10 15 -10 18 0 78 -58 84 -81 2 -7 7 -26 11 -41 5 -15 5 -30 0 -33 -5 -3
-7 -12 -3 -20 3 -8 0 -15 -6 -15 -6 0 -8 -6 -5 -13 6 -17 -60 -78 -86 -80 -11
-1 -20 -4 -20 -8 0 -10 -60 7 -73 20 -10 10 -37 -9 -37 -26 0 -4 27 -37 60
-72 33 -35 60 -65 60 -66 0 -2 26 -30 58 -63 l58 -60 32 35 c18 19 32 33 32
31 0 -3 33 27 73 66 40 39 71 74 70 77 -2 4 6 9 17 12 25 7 26 31 1 56 -19 19
-20 19 -49 -12 -17 -18 -57 -57 -90 -87 -33 -30 -58 -58 -56 -62 3 -4 -3 -5
-12 -1 -10 4 -15 2 -11 -3 3 -6 -2 -15 -11 -20 -13 -8 -21 -6 -34 8 -10 10
-15 18 -10 18 4 0 -5 11 -20 24 -15 12 -25 26 -21 30 3 3 -1 6 -9 6 -22 0 -32
30 -10 32 9 0 23 2 29 2 7 1 22 9 33 19 11 9 20 14 20 12 0 -3 11 5 24 17 13
13 21 26 19 31 -2 4 0 7 6 7 18 0 34 121 17 132 -8 6 -8 8 0 8 18 0 -36 100
-71 132 -27 26 -84 58 -109 62 -6 1 -16 5 -22 9 -6 3 -14 4 -17 1z m-97 -136
c0 -4 3 -7 8 -7 19 3 33 -2 27 -11 -3 -5 -2 -10 2 -10 5 0 10 -11 11 -25 1
-16 -3 -25 -12 -25 -8 0 -16 -5 -18 -10 -6 -18 -46 -20 -53 -2 -13 30 -15 71
-5 77 6 4 8 10 6 14 -3 3 4 7 15 7 10 0 19 -4 19 -8z"/>
<path d="M7230 2019 c-14 -4 -21 -7 -16 -8 5 -1 2 -9 -7 -19 -14 -15 -15 -21
-4 -36 27 -37 77 -20 82 28 3 28 -22 45 -55 35z"/>
<path d="M7390 2009 c-17 -11 -35 -30 -40 -43 -5 -13 -13 -27 -19 -30 -5 -4
-7 -19 -4 -34 3 -15 6 -32 6 -39 0 -7 4 -10 9 -7 4 3 8 -1 8 -9 0 -8 10 -21
23 -30 12 -8 44 -35 71 -61 26 -25 52 -46 56 -46 25 0 11 -32 -37 -81 l-53
-55 -72 68 c-39 37 -75 68 -79 68 -4 0 -11 9 -14 20 -4 11 -10 18 -15 15 -5
-3 -13 2 -18 12 -14 25 -35 24 -55 -3 -17 -22 -17 -24 -1 -24 10 0 15 -3 11
-6 -3 -4 17 -28 46 -55 29 -27 73 -69 99 -93 25 -25 49 -42 52 -39 3 4 6 -1 6
-9 0 -9 8 -19 17 -22 16 -7 24 0 221 210 31 33 64 71 72 84 8 12 20 28 26 34
17 19 9 62 -19 90 -14 14 -29 26 -32 26 -3 0 -16 11 -28 24 -12 13 -30 22 -40
20 -9 -1 -15 1 -13 5 8 12 -56 29 -106 29 -28 -1 -60 -9 -78 -19z m128 -41 c6
-1 12 -5 12 -10 0 -4 7 -8 15 -8 8 0 15 -4 15 -10 0 -5 7 -10 15 -10 8 0 15
-4 15 -8 0 -5 11 -14 24 -21 13 -7 28 -23 34 -36 9 -19 4 -29 -37 -75 l-47
-52 -28 23 c-15 13 -37 34 -49 47 -11 12 -27 22 -34 22 -8 0 -12 4 -9 8 3 5
-6 15 -19 22 -25 13 -34 28 -41 68 -3 15 -1 21 6 17 9 -5 14 6 12 26 -1 5 29
4 116 -3z"/>
<path d="M7082 1684 c-12 -8 -22 -20 -22 -26 0 -6 20 -30 45 -54 25 -23 45
-47 45 -53 0 -5 9 -13 21 -16 11 -4 19 -9 16 -11 -2 -3 29 -38 69 -79 40 -41
70 -75 66 -75 -4 0 -25 -18 -47 -40 -22 -21 -45 -39 -50 -40 -6 0 -18 -12 -27
-27 -12 -19 -18 -23 -18 -11 0 9 -6 19 -12 21 -10 4 -9 8 2 16 8 6 11 11 6 11
-6 0 -5 5 2 12 16 16 15 92 0 120 -49 84 -108 127 -170 123 -16 -1 -28 2 -28
7 0 5 -13 0 -29 -11 -16 -12 -34 -21 -40 -21 -6 0 -11 -10 -11 -21 0 -23 -4
-22 88 -4 20 4 32 2 32 -4 0 -6 6 -11 13 -11 18 0 77 -58 77 -76 0 -8 4 -13 8
-10 10 6 16 -40 10 -89 -1 -8 -5 -12 -10 -9 -4 3 -8 1 -8 -5 0 -19 -60 -43
-89 -35 -14 4 -29 7 -33 6 -5 -1 -7 2 -5 6 1 5 -17 27 -40 51 -24 23 -43 39
-43 36 0 -4 -7 1 -16 9 -8 9 -23 17 -32 17 -65 5 -79 5 -97 -5 -11 -6 -22 -10
-25 -11 -12 0 -79 -69 -75 -76 3 -4 0 -9 -7 -11 -17 -6 -31 -93 -17 -113 4 -5
7 -13 8 -18 1 -17 36 -67 47 -67 7 0 14 -7 17 -14 9 -22 61 -46 104 -48 40 -1
107 27 98 42 -3 4 0 10 7 12 13 5 20 30 19 68 -1 35 -42 72 -82 75 -40 4 -65
-8 -100 -46 -24 -27 -58 -41 -45 -20 4 5 1 11 -5 13 -19 6 -16 98 4 113 9 6
17 18 17 25 0 7 3 11 6 7 3 -3 20 2 38 12 22 13 38 16 55 9 31 -11 82 -54 74
-62 -4 -3 -1 -6 5 -6 7 0 22 -11 33 -25 21 -23 56 -36 112 -40 15 -1 27 2 27
7 0 4 13 7 29 6 24 -2 28 -5 21 -18 -5 -9 -21 -25 -36 -36 -14 -10 -37 -28
-49 -39 -47 -40 -65 -55 -71 -55 -2 0 -23 -18 -45 -40 -22 -21 -43 -41 -47
-42 -4 -2 -6 -6 -4 -10 1 -5 -3 -8 -9 -8 -35 0 -66 -98 -37 -116 17 -11 98
-13 98 -2 0 4 3 7 8 6 12 -3 66 26 79 42 7 8 13 11 13 7 0 -4 6 -2 14 5 8 7
11 17 8 22 -3 5 0 6 5 3 10 -6 88 63 124 109 26 33 49 101 47 140 -1 31 4 42
35 66 20 17 51 43 68 59 17 16 36 29 42 29 6 0 8 3 4 6 -3 4 4 14 15 24 l22
17 -47 48 c-26 25 -47 50 -47 55 0 5 -9 12 -20 15 -11 3 -20 10 -20 13 0 4
-37 47 -83 94 -80 84 -84 87 -105 72z m-218 -530 c18 -25 16 -46 -7 -68 -12
-13 -17 -14 -17 -4 0 8 -3 9 -8 3 -8 -12 -53 -15 -46 -3 3 4 -1 11 -9 14 -16
6 -19 34 -4 34 6 0 8 3 5 6 -11 10 26 40 49 39 13 0 29 -9 37 -21z m294 -27
c-6 -18 -15 -38 -21 -44 -5 -7 -7 -13 -4 -13 8 0 -53 -58 -94 -90 -17 -14 -40
-33 -50 -42 -11 -10 -22 -19 -26 -20 -5 0 -21 -7 -37 -13 -31 -13 -56 -10 -56
7 0 11 98 108 109 108 4 0 26 17 48 39 23 21 44 36 47 33 3 -3 8 3 12 12 3 9
12 16 20 16 8 0 13 5 12 12 -2 7 4 13 12 13 8 1 14 6 13 13 -2 6 4 9 11 6 12
-4 12 -12 4 -37z"/>
<path d="M1400 1580 c0 -5 -19 -29 -42 -53 -77 -78 -168 -181 -168 -190 0 -4
-4 -5 -10 -2 -19 12 -10 -4 17 -29 l27 -25 33 32 c18 18 33 35 33 38 0 3 25
32 55 64 30 31 55 61 55 65 0 5 9 12 21 15 14 5 26 0 40 -16 10 -12 19 -18 19
-14 0 5 6 0 14 -10 16 -22 10 -33 -58 -110 -20 -22 -36 -44 -36 -48 0 -5 -5
-5 -12 -1 -8 5 -9 2 -5 -9 4 -11 1 -17 -8 -17 -8 0 -15 -3 -15 -7 0 -5 -11
-21 -25 -37 l-25 -29 27 -19 c28 -18 28 -18 56 12 15 16 28 32 28 34 1 5 67
81 116 133 l32 34 29 -30 c26 -28 30 -29 45 -14 14 15 13 19 -16 50 -17 18
-37 33 -45 33 -7 0 -10 5 -7 10 3 6 0 10 -7 10 -8 0 -20 9 -28 20 -8 11 -20
20 -28 20 -7 0 -10 5 -7 10 3 6 3 10 -2 10 -4 0 -28 18 -51 40 -46 42 -52 46
-52 30z"/>
<path d="M1723 1294 c-3 -9 -21 -31 -40 -50 -18 -18 -33 -37 -33 -41 -1 -4
-19 -26 -40 -48 -22 -22 -43 -48 -46 -57 -3 -10 -10 -18 -16 -18 -6 0 -8 -3
-5 -7 4 -3 2 -11 -3 -18 -7 -8 1 -23 25 -49 27 -30 42 -38 70 -38 19 0 38 -4
41 -9 3 -5 0 -9 -5 -9 -18 0 -12 -24 9 -43 11 -9 24 -17 28 -17 4 0 13 -9 20
-20 7 -11 17 -20 22 -20 5 0 18 -6 27 -14 52 -43 114 -86 123 -86 6 0 10 -4
10 -10 0 -5 5 -10 11 -10 6 0 17 -7 25 -15 9 -8 25 -15 36 -15 12 0 18 3 15 7
-4 3 5 21 19 40 14 18 22 33 19 33 -3 0 3 10 15 22 11 12 20 26 20 31 0 4 6
15 13 22 29 33 37 45 37 54 0 6 8 15 18 20 9 6 13 11 9 11 -5 0 -1 7 7 16 17
16 22 49 7 40 -5 -3 -12 1 -15 9 -3 8 -11 14 -18 13 -12 -3 -72 -79 -85 -108
-4 -8 -9 -17 -12 -20 -3 -3 -23 -30 -44 -61 -35 -53 -40 -56 -62 -46 -13 7
-21 15 -19 19 3 5 -1 8 -8 8 -8 0 -29 13 -48 30 -19 16 -39 29 -43 30 -4 0
-19 11 -33 25 -14 14 -29 25 -34 25 -9 0 -3 9 44 63 10 12 22 32 27 45 5 13
13 20 19 17 5 -3 10 0 10 7 0 7 11 26 25 41 14 15 23 27 20 27 -3 0 4 9 16 21
l21 21 -23 23 -24 23 -18 -21 c-29 -35 -60 -73 -81 -102 -31 -42 -56 -69 -56
-60 0 4 -8 1 -17 -6 -15 -12 -16 -12 -8 1 7 12 6 13 -6 4 -10 -9 -24 -8 -54 1
-22 7 -34 13 -27 14 7 1 11 5 8 9 -3 4 10 24 27 44 62 70 77 90 77 99 0 6 4 7
10 4 5 -3 12 6 16 20 3 13 9 23 13 21 4 -3 12 4 18 14 10 14 8 22 -6 39 -22
25 -39 27 -48 5z"/>
<path d="M1969 1249 c-15 -15 -18 -24 -10 -33 6 -7 8 -16 4 -19 -6 -7 0 -9 30
-11 6 -1 15 -5 18 -9 8 -11 39 20 39 39 0 16 -35 54 -50 54 -5 0 -19 -9 -31
-21z"/>
<path d="M6203 1167 c-12 -34 -10 -51 7 -64 24 -18 70 11 68 42 -4 40 -62 58
-75 22z"/>
<path d="M6407 1143 c-20 -8 -34 -19 -31 -25 11 -17 48 -26 72 -17 13 5 22 5
22 -1 0 -6 6 -10 13 -10 6 0 25 -11 41 -25 16 -14 25 -25 21 -25 -4 0 2 -8 13
-19 12 -10 19 -21 15 -25 -3 -3 -2 -6 4 -6 7 0 10 -18 9 -45 -2 -48 -20 -72
-67 -92 -32 -14 -86 9 -101 43 -6 13 -15 21 -19 18 -5 -3 -9 3 -9 12 0 15 -71
92 -88 95 -32 7 -103 5 -108 -2 -3 -5 -10 -7 -15 -4 -5 4 -9 1 -9 -4 0 -6 -7
-11 -15 -11 -8 0 -15 -4 -15 -8 0 -5 -11 -14 -24 -22 -22 -11 -40 -42 -37 -62
1 -5 -4 -8 -10 -8 -6 0 -9 -6 -6 -12 2 -7 0 -23 -4 -35 -6 -15 -5 -23 2 -23 6
0 9 -9 6 -20 -3 -11 -1 -20 5 -20 5 0 6 -4 3 -10 -3 -5 -1 -10 4 -10 6 0 11
-5 11 -12 0 -6 11 -26 25 -43 28 -38 95 -81 95 -62 0 7 3 8 8 2 9 -13 42 -16
42 -4 0 5 9 9 20 9 11 0 20 5 20 11 0 5 4 8 8 5 5 -3 18 12 29 32 21 40 21 81
0 94 -6 4 -7 8 -2 8 27 1 -44 40 -73 40 -38 0 -87 -23 -95 -45 -4 -8 -14 -15
-23 -15 -10 0 -14 5 -11 15 4 8 2 17 -4 21 -6 3 -8 12 -5 19 3 8 0 16 -7 19
-9 3 -9 5 1 5 6 1 12 10 12 20 0 11 5 23 10 26 6 4 8 10 5 15 -3 5 4 11 15 15
12 4 17 11 14 18 -4 7 -4 9 1 5 4 -4 14 -3 22 3 7 6 13 8 13 4 0 -4 6 -2 14 4
9 8 16 8 20 2 4 -5 15 -8 26 -6 12 2 18 0 15 -5 -3 -5 1 -12 8 -17 8 -4 27
-28 43 -53 31 -49 82 -99 102 -101 44 -5 59 -4 71 5 12 9 13 8 6 -3 -5 -9 2
-8 24 5 17 10 31 23 31 28 0 5 3 6 6 3 11 -10 58 48 53 66 0 1 4 14 10 29 6
15 6 30 2 33 -5 3 -7 14 -4 25 3 11 0 26 -6 33 -6 8 -8 17 -4 20 3 4 1 7 -5 7
-7 0 -12 6 -12 13 0 14 -33 46 -70 69 -36 23 -91 27 -133 11z m-120 -380 c11
-17 11 -23 -6 -41 -24 -28 -58 -28 -88 0 l-24 22 33 32 c29 28 36 31 52 20 11
-7 26 -22 33 -33z"/>
<path d="M2255 870 c-44 -10 -75 -28 -112 -68 -30 -32 -38 -46 -30 -55 1 -2
-4 -11 -10 -19 -17 -20 -8 -84 16 -114 10 -13 21 -20 25 -17 3 3 6 1 6 -6 0
-7 5 -9 10 -6 6 3 10 1 10 -5 0 -24 81 -4 112 28 55 54 36 130 -42 172 -21 11
-22 13 -6 22 36 20 117 18 168 -4 26 -11 48 -25 48 -30 0 -5 6 -6 13 -2 6 4 9
4 5 -1 -4 -4 -2 -15 4 -24 7 -9 8 -13 4 -9 -5 4 -15 3 -23 -3 -7 -6 -13 -8
-13 -4 0 4 -11 -4 -25 -19 -14 -15 -25 -23 -25 -19 -1 16 -44 -83 -45 -102 0
-11 -4 -26 -8 -32 -5 -7 -4 -13 0 -13 5 0 10 -10 10 -22 1 -13 7 -24 13 -26 5
-2 10 -11 10 -19 0 -9 6 -13 14 -10 8 3 16 1 18 -5 5 -15 79 -12 89 4 5 7 9 9
9 4 0 -17 60 60 70 91 14 40 16 91 6 121 -7 20 -5 22 17 18 54 -10 86 -35 106
-84 18 -42 17 -79 -3 -127 -16 -39 -60 -87 -70 -78 -3 3 -8 -1 -12 -10 -3 -9
1 -24 11 -33 26 -26 70 1 123 75 26 36 39 136 20 158 -6 7 -7 13 -4 13 8 0
-31 57 -56 82 -10 10 -25 18 -33 18 -9 0 -18 6 -21 13 -3 8 -10 14 -17 15 -62
6 -104 18 -115 34 -7 10 -17 18 -22 18 -5 0 -21 11 -36 25 -14 13 -30 22 -34
20 -5 -3 -10 0 -12 5 -2 6 -10 12 -18 14 -8 2 -22 6 -30 9 -8 3 -22 5 -30 5
-8 0 -24 2 -35 5 -11 2 -33 1 -50 -3z m-11 -163 c9 -24 6 -31 -21 -59 -30 -29
-32 -30 -54 -14 -13 9 -19 16 -14 16 6 0 3 5 -5 10 -12 7 -12 10 -1 10 7 0 11
6 7 15 -3 8 -2 15 3 15 5 0 11 9 14 21 9 32 59 22 71 -14z m277 -47 c-4 -3 -6
-12 -6 -20 1 -23 -27 -103 -42 -118 -7 -7 -13 -11 -13 -7 0 4 -7 -1 -16 -10
-12 -11 -20 -13 -29 -5 -14 12 -13 78 1 89 5 3 10 13 12 21 4 19 59 70 66 62
3 -3 6 0 6 7 0 9 4 9 14 -1 8 -7 11 -15 7 -18z"/>
<path d="M5945 862 c-11 -3 -23 -9 -26 -14 -8 -12 12 -68 23 -68 4 0 8 -6 8
-14 0 -16 51 -110 62 -114 4 -2 5 -8 2 -14 -4 -6 -3 -13 2 -17 5 -3 14 -16 21
-28 10 -17 9 -24 -4 -35 -9 -7 -19 -12 -22 -12 -8 2 -55 -19 -61 -27 -3 -4
-14 -9 -25 -11 -17 -2 -20 3 -22 32 -5 79 -8 90 -20 90 -7 0 -12 3 -11 8 7 21
-66 77 -115 88 -38 9 -110 4 -123 -8 -3 -4 -12 -4 -20 -1 -8 3 -14 0 -14 -7 0
-6 -4 -8 -10 -5 -5 3 -10 1 -10 -4 0 -6 -6 -11 -14 -11 -17 0 -64 -55 -84
-100 -20 -46 -18 -124 5 -151 11 -14 13 -19 13 -39 0 -5 7 -10 15 -10 8 0 15
-5 15 -10 0 -6 14 -19 30 -29 32 -19 102 -19 108 -1 2 6 9 10 16 10 16 0 41
31 49 59 7 29 -19 91 -39 91 -9 0 -12 5 -8 12 5 8 0 9 -14 6 -12 -4 -22 -2
-22 2 0 9 -40 1 -56 -11 -6 -5 -13 -7 -16 -4 -3 3 -11 -1 -18 -10 -14 -17 -35
-21 -25 -5 3 6 2 10 -2 10 -5 0 -9 9 -9 20 0 11 4 20 9 20 5 0 7 7 3 15 -3 8
-1 15 4 15 6 0 10 7 10 17 0 21 58 73 81 73 10 0 20 4 23 8 4 7 66 8 74 2 1
-1 5 -3 10 -4 4 -1 13 -5 20 -9 6 -5 12 -6 12 -3 0 3 9 -3 20 -14 11 -11 20
-24 20 -29 0 -5 4 -11 10 -13 5 -1 11 -14 14 -28 2 -14 5 -25 6 -25 1 0 3 -12
4 -27 1 -16 -3 -28 -8 -28 -5 0 -7 -3 -3 -6 3 -3 -6 -18 -21 -31 -18 -17 -23
-27 -14 -30 6 -3 9 -9 6 -15 -5 -7 3 -9 22 -4 16 4 32 12 35 18 3 5 10 9 15 9
19 -2 74 21 74 30 0 6 5 7 10 4 6 -3 10 -1 10 6 0 7 3 10 6 6 3 -3 34 10 69
28 34 19 65 32 68 29 2 -3 7 2 10 11 4 8 2 15 -3 15 -6 0 -9 3 -8 8 4 11 -26
72 -34 72 -5 0 -8 9 -8 20 0 11 -3 20 -7 20 -5 0 -19 25 -33 55 -14 30 -28 55
-32 55 -5 0 -8 8 -8 18 -1 26 -23 48 -45 44z m-301 -392 c21 0 36 -43 19 -58
-7 -7 -11 -17 -8 -22 3 -5 -6 -7 -21 -4 -19 3 -24 1 -19 -8 4 -7 -7 1 -23 19
-17 17 -34 28 -38 25 -4 -4 2 7 15 23 24 31 54 48 59 34 2 -5 9 -9 16 -9z"/>
<path d="M5118 659 c-6 -4 -16 -5 -20 -3 -4 3 -14 2 -20 -3 -7 -4 -18 -8 -25
-9 -23 -4 -126 -94 -108 -94 3 0 0 -10 -7 -22 -7 -13 -13 -26 -14 -30 -1 -5
-2 -9 -3 -10 -7 -8 -5 -98 1 -98 5 0 8 -8 8 -17 0 -24 23 -83 32 -83 4 0 8 -7
8 -15 0 -9 7 -18 15 -21 8 -4 12 -10 9 -15 -3 -5 2 -9 11 -9 8 0 18 -6 21 -14
3 -8 15 -17 27 -21 12 -4 27 -9 32 -10 47 -16 155 -5 155 15 0 5 9 12 20 15
11 4 18 10 15 15 -3 5 -1 11 5 15 17 11 11 49 -13 78 -18 23 -32 29 -70 31
-26 2 -47 -1 -47 -5 0 -5 -6 -9 -13 -9 -20 0 -49 -40 -51 -71 -1 -16 -6 -32
-11 -36 -4 -4 -5 -3 -2 3 4 7 1 14 -7 17 -19 7 -76 91 -76 111 0 9 -4 16 -8
16 -11 0 -9 124 2 132 5 3 11 13 12 21 4 28 44 57 99 72 55 14 107 12 113 -6
2 -5 9 -9 16 -9 10 0 53 -42 48 -47 -6 -7 -1 -24 6 -20 4 3 8 -6 8 -19 1 -13
5 -32 9 -42 9 -18 11 -26 19 -57 18 -73 41 -141 49 -146 5 -3 9 -10 10 -15 1
-5 9 -8 17 -6 8 2 21 4 28 4 9 1 11 9 7 22 -3 12 -7 30 -9 41 -2 11 -8 31 -14
45 -19 46 -25 65 -23 74 1 4 -4 14 -10 22 -6 8 -8 14 -3 14 4 0 3 5 -4 12 -7
7 -12 22 -12 35 0 13 -5 23 -12 23 -6 0 -8 3 -5 7 13 12 -49 93 -70 93 -7 0
-13 4 -13 9 0 18 -109 34 -132 20z m89 -361 c14 -19 13 -55 -1 -67 -19 -16
-58 15 -54 42 5 35 36 49 55 25z"/>
<path d="M2943 594 c-7 -7 -13 -17 -13 -21 0 -5 -20 -58 -45 -118 -25 -61 -45
-116 -45 -122 0 -7 -4 -13 -10 -13 -23 0 -4 -49 21 -54 17 -4 47 -15 74 -27
12 -6 30 -12 40 -14 11 -2 22 -4 25 -5 3 -1 8 -2 13 -1 4 0 7 -4 7 -9 0 -6 3
-9 8 -8 9 2 64 -13 77 -21 6 -3 18 -6 28 -7 9 -1 19 -3 22 -4 3 -1 8 -3 13 -4
4 -1 12 -4 17 -7 15 -10 76 -22 110 -23 34 -1 65 20 65 44 0 9 6 22 13 29 10
11 9 12 -3 6 -13 -8 -13 -7 -1 9 21 25 19 153 -2 197 -9 19 -23 42 -30 51 -26
33 -120 56 -144 36 -7 -6 -13 -7 -13 -2 0 15 -39 -33 -42 -52 -2 -11 -5 -21
-8 -24 -12 -12 -41 -103 -43 -132 -1 -10 -5 -18 -9 -18 -4 0 -8 -7 -8 -15 0
-17 -23 -20 -50 -5 -10 6 -30 11 -44 12 -15 1 -26 6 -26 9 0 4 -8 9 -17 11
-16 3 -27 48 -12 48 5 0 11 16 15 35 3 19 10 35 14 35 7 0 22 56 17 64 -1 2 7
14 18 27 11 12 14 19 7 15 -7 -4 -4 8 8 28 l20 36 -28 14 c-23 12 -29 12 -39
0z m329 -139 c36 -15 54 -156 25 -202 -5 -7 -6 -17 -3 -21 3 -5 -3 -18 -14
-30 -19 -20 -21 -20 -77 -5 -81 22 -86 28 -68 69 8 19 11 34 8 34 -3 0 1 7 8
17 8 9 13 18 11 20 -6 8 22 93 31 93 6 0 8 3 4 6 -3 3 0 12 6 19 12 13 38 13
69 0z"/>
<path d="M3709 545 c-3 -2 -22 -6 -44 -9 -49 -5 -135 -41 -135 -56 0 -5 -5
-10 -11 -10 -14 0 -48 -41 -49 -57 0 -7 -4 -13 -8 -13 -8 0 -10 -7 -14 -50 -1
-11 -5 -20 -8 -20 -9 0 -6 -33 5 -49 6 -10 4 -12 -4 -6 -9 5 -10 2 -3 -11 5
-11 18 -36 28 -56 10 -21 22 -38 26 -38 3 0 10 -9 13 -20 4 -11 10 -18 15 -15
4 3 10 -2 14 -10 3 -8 12 -15 20 -15 8 0 16 -4 18 -9 2 -5 10 -11 18 -13 8 -2
17 -6 20 -10 3 -4 18 -9 33 -12 14 -2 32 -8 38 -12 8 -5 9 -3 4 6 -5 9 -4 11
3 6 37 -23 107 -6 146 36 20 22 25 80 7 86 -6 2 -11 8 -11 14 0 5 -7 16 -15
24 -8 9 -15 13 -15 11 0 -2 -19 -1 -42 3 -36 7 -44 5 -67 -18 -14 -14 -28 -24
-31 -22 -2 3 -6 -12 -8 -32 -2 -27 1 -38 10 -38 10 0 9 -3 -2 -9 -8 -6 -19 -7
-25 -3 -5 4 -13 7 -16 7 -3 0 -22 13 -43 30 -40 32 -66 75 -66 112 0 12 -5 23
-11 23 -6 0 -7 5 -2 13 4 6 8 14 8 17 8 54 66 140 94 140 6 0 11 5 11 12 0 6
3 8 7 5 3 -4 11 -3 17 2 6 5 31 12 55 16 40 6 43 5 36 -12 -4 -10 -9 -37 -11
-59 -2 -33 1 -45 19 -61 31 -29 62 -36 101 -23 47 15 68 49 56 89 -5 17 -6 31
-4 31 3 0 -7 13 -23 29 -15 16 -31 27 -35 24 -5 -2 -8 -1 -8 4 0 4 -16 13 -35
19 -19 6 -35 7 -35 2 0 -5 -8 -4 -19 1 -10 6 -20 9 -22 6z m121 -123 c0 -33
-28 -55 -47 -36 -18 17 -16 40 4 64 21 24 43 10 43 -28z m-69 -226 c5 3 14 -7
19 -21 8 -21 6 -30 -9 -46 -16 -18 -20 -18 -34 -5 -8 8 -18 12 -22 8 -4 -4 0
10 9 32 9 21 16 41 17 45 0 3 3 0 6 -7 2 -6 9 -10 14 -6z"/>
<path d="M4465 396 c-11 -12 -12 -107 -1 -124 3 -6 2 -13 -4 -17 -6 -4 -7 -11
-4 -17 4 -6 9 -42 11 -79 l4 -69 -33 -1 c-18 0 -71 -2 -118 -3 -47 -1 -90 -1
-96 1 -7 3 -11 54 -11 149 0 79 -2 146 -4 148 -2 2 -15 6 -29 8 -23 3 -25 -1
-26 -33 0 -19 -3 -39 -5 -45 -3 -5 -4 -43 -4 -84 0 -68 -2 -77 -25 -95 -34
-28 -80 -47 -81 -35 -1 6 -2 16 -3 23 -1 6 2 17 6 24 5 6 5 14 -1 17 -6 4 -7
16 -3 29 9 27 9 48 -1 64 -4 6 -3 14 1 17 5 3 10 32 11 64 2 59 2 59 -26 57
-15 -1 -31 -3 -34 -3 -3 -1 -5 -22 -4 -47 1 -25 -3 -45 -9 -45 -6 0 -5 -5 2
-12 6 -6 8 -17 3 -27 -5 -9 -8 -29 -6 -46 1 -16 -2 -42 -6 -56 -3 -14 -2 -34
3 -44 7 -12 7 -16 0 -11 -15 9 -3 -31 13 -44 28 -23 135 -13 135 12 0 4 6 8
14 8 8 0 12 -8 9 -23 -4 -19 0 -22 25 -22 17 0 28 3 25 7 -2 5 1 8 6 8 6 0 11
-4 11 -10 0 -6 9 -6 25 0 16 6 26 6 31 -1 4 -6 11 -6 20 2 11 9 14 9 14 -1 0
-10 3 -10 15 0 8 7 15 8 15 3 0 -5 9 -9 20 -9 11 0 20 3 20 7 0 8 20 6 36 -4
6 -3 14 -3 18 1 4 4 29 8 54 8 26 1 52 2 58 3 11 1 13 27 3 46 -2 6 -4 38 -4
72 0 35 -2 63 -5 63 -3 0 -5 25 -5 56 1 30 -3 58 -7 61 -5 2 -6 12 -4 21 10
32 -27 52 -49 28z"/>
</g>
</svg>
